<svg width="149" height="172" viewBox="0 0 149 172" fill="none" xmlns="http://www.w3.org/2000/svg">
    <path d="M148.89 97.0021C148.89 107.992 146.49 118.432 142.18 127.812C130.5 153.302 104.76 171.002 74.8896 171.002C45.0196 171.002 19.2796 153.302 7.59965 127.812C3.28965 118.432 0.889648 107.992 0.889648 97.0021C0.889648 56.1321 34.0196 23.0021 74.8896 23.0021C115.76 23.0021 148.89 56.1321 148.89 97.0021Z" fill="#F0F1F2"/>
    <mask id="mask0_205_43418" style="mask-type:alpha" maskUnits="userSpaceOnUse" x="1" y="0" width="148" height="172">
        <path d="M149 40.5C149 51.49 146.6 118.43 142.29 127.81C130.61 153.3 104.87 171 75 171C45.13 171 19.39 153.3 7.71 127.81C3.4 118.43 1 51.49 1 40.5C1 -0.369999 34.13 0.000117124 75 0.000117124C115.87 0.000117124 149 -0.369999 149 40.5Z" fill="#F0F1F2"/>
    </mask>
    <g mask="url(#mask0_205_43418)">
        <g filter="url(#filter0_d_205_43418)">
            <path d="M18.8921 19.6231C18.8921 18.7261 19.6181 18.0001 20.5151 18.0001H129.269C130.166 18.0001 130.892 18.7261 130.892 19.6231V169.826C130.892 170.723 130.166 171.449 129.269 171.449H20.5151C19.6181 171.449 18.8921 170.723 18.8921 169.826V19.6231Z" fill="#5BA7B1"/>
            <path d="M130.892 75.2755H18.8921V105.711H130.892V75.2755Z" fill="#7FBEC6"/>
            <path d="M18.8921 105.71H130.892V169.826C130.892 170.723 130.166 171.449 129.269 171.449H20.5151C19.6181 171.449 18.8921 170.723 18.8921 169.826V105.71Z" fill="white"/>
            <path d="M44.9859 75.1288H41.0009L38.9719 63.0118H42.9489L43.1279 64.0828L44.9859 75.1288Z" fill="white"/>
            <path d="M107.741 105.851H104.2L101.795 91.5128H105.335L107.741 105.851Z" fill="#6D493C"/>
            <path d="M73.4859 59.8275H42.4169L37.3669 29.7355H66.1899C67.4869 29.7355 68.5939 30.6725 68.8089 31.9515L73.4859 59.8275Z" fill="white"/>
            <path d="M42.417 59.8275H38.437L33.907 32.8295C33.635 31.2105 34.883 29.7345 36.525 29.7345H37.367L42.417 59.8275Z" fill="white"/>
            <path d="M113.681 63.0303L102.142 72.4853L102.584 75.1263H94.229L109.011 63.0123H87.22V59.8263H113.681V63.0303Z" fill="#6D493C"/>
            <path d="M75.7051 94.1518L61.4271 105.851H56.7361L74.2321 91.5128H75.2601L75.7051 94.1518Z" fill="#6D493C"/>
            <path d="M75.0489 69.1418L71.9369 71.6928L67.7459 75.1268H44.9839L42.9519 63.0128H74.0199L75.0489 69.1418Z" fill="white"/>
            <path d="M87.2199 63.0133L75.6169 72.5223L81.2089 105.85H77.6689L72.5139 75.1263L72.5049 75.0713L72.4379 75.1263L34.9449 105.85H30.2539L82.5289 63.0123H33.6729V59.8263H87.2199V63.0133Z" fill="#AF5947"/>
            <path d="M118.679 77.7841V91.5141H89.4929V75.1281H116.024C117.49 75.1281 118.679 76.3171 118.679 77.7841Z" fill="#D2D5D9"/>
            <path d="M89.493 75.1281V91.5131H78.802L76.053 75.1281H89.493Z" fill="#D2D5D9"/>
            <path d="M75.2609 91.5144H52.4419L72.5029 75.0734L75.2609 91.5144Z" fill="#D2D5D9"/>
            <path d="M67.743 75.13L47.729 91.516H43.752L41.001 75.13H67.743Z" fill="#D2D5D9"/>
            <path d="M77.8921 117H31.8921C30.7871 117 29.8921 117.895 29.8921 119C29.8921 120.105 30.7871 121 31.8921 121H77.8921C78.9971 121 79.8921 120.105 79.8921 119C79.8921 117.895 78.9961 117 77.8921 117Z" fill="#D2D5D9"/>
            <path d="M64.8921 132H34.8921C32.1311 132 29.8921 134.239 29.8921 137C29.8921 139.761 32.1311 142 34.8921 142H64.8921C67.6531 142 69.8921 139.761 69.8921 137C69.8921 134.239 67.6531 132 64.8921 132Z" fill="#00735C"/>
        </g>
    </g>
    <defs>
        <filter id="filter0_d_205_43418" x="8.89209" y="10.0001" width="132" height="173.449" filterUnits="userSpaceOnUse" color-interpolation-filters="sRGB">
            <feFlood flood-opacity="0" result="BackgroundImageFix"/>
            <feColorMatrix in="SourceAlpha" type="matrix" values="0 0 0 0 0 0 0 0 0 0 0 0 0 0 0 0 0 0 127 0" result="hardAlpha"/>
            <feOffset dy="2"/>
            <feGaussianBlur stdDeviation="5"/>
            <feColorMatrix type="matrix" values="0 0 0 0 0 0 0 0 0 0 0 0 0 0 0 0 0 0 0.3 0"/>
            <feBlend mode="normal" in2="BackgroundImageFix" result="effect1_dropShadow_205_43418"/>
            <feBlend mode="normal" in="SourceGraphic" in2="effect1_dropShadow_205_43418" result="shape"/>
        </filter>
    </defs>
</svg>
