<svg width="60" height="60" viewBox="0 0 60 60" fill="none" xmlns="http://www.w3.org/2000/svg">
    <path fill-rule="evenodd" clip-rule="evenodd" d="M39 15C39 10.037 34.963 6 30 6C25.037 6 21 10.037 21 15V23H39V15ZM45 23V15C45 6.716 38.284 0 30 0C21.716 0 15 6.716 15 15V23H10C8.895 23 8 23.895 8 25V45C8 53.284 14.716 60 23 60H37C45.284 60 52 53.284 52 45V25C52 23.895 51.105 23 50 23H45ZM30 50C28.343 50 27 48.657 27 47V35C27 33.343 28.343 32 30 32C31.657 32 33 33.343 33 35V47C33 48.657 31.657 50 30 50Z" fill="#8C9196"/>
</svg>